<?xml version="1.0" standalone="no"?><!DOCTYPE svg PUBLIC "-//W3C//DTD SVG 1.1//EN" "http://www.w3.org/Graphics/SVG/1.1/DTD/svg11.dtd"><svg t="1495093924066" class="icon" style="" viewBox="0 0 1024 1024" version="1.1" xmlns="http://www.w3.org/2000/svg" p-id="3331" xmlns:xlink="http://www.w3.org/1999/xlink" width="20" height="20"><defs><style type="text/css"></style></defs><path d="M1023.776727 346.26886C1023.776727 277.032444 967.894929 221.029378 898.770263 221.029378L524.389269 221.029378 541.827964 228.160369 415.475552 104.318316 408.200011 97.187324 398.036858 97.187324 49.727948 97.187324 24.752338 97.187324 24.752338 122.285363 24.752338 799.805071C24.752338 869.148378 80.62984 925.422618 149.496902 925.422618L887.174801 925.422618C900.96845 925.422618 912.150411 914.185843 912.150411 900.324578 912.150411 886.463315 900.96845 875.226539 887.174801 875.226539L149.496902 875.226539C108.2416 875.226539 74.703558 841.450372 74.703558 799.805071L74.703558 122.285363 49.727948 147.383402 398.036858 147.383402 380.598165 140.25241 506.950577 264.094464 514.226118 271.225456 524.389269 271.225456 898.770263 271.225456C940.338027 271.225456 973.825508 304.785609 973.825508 346.26886L973.825508 788.661907C973.825508 802.523172 985.007471 813.759947 998.801118 813.759947 1012.594767 813.759947 1023.776727 802.523172 1023.776727 788.661907L1023.776727 346.26886Z" p-id="3332" fill="#1296db"></path><path d="M1016.007812 486.2577 1016.007812 436.061621 27.784179 436.061621 27.784179 486.2577 1016.007812 486.2577Z" p-id="3333" fill="#1296db"></path></svg>